<svg width="120" height="30" viewBox="0 0 120 30" fill="none" xmlns="http://www.w3.org/2000/svg">
<g clip-path="url(#clip0_65_63)">
<path d="M56.25 26.25L51.8751 21.875M55 14.375C55 20.243 50.243 25 44.375 25C38.507 25 33.75 20.243 33.75 14.375C33.75 8.50697 38.507 3.75 44.375 3.75C50.243 3.75 55 8.50697 55 14.375Z" stroke="white" stroke-width="2" stroke-linecap="round" stroke-linejoin="round"/>
<path d="M3.75 15H26.25M3.75 7.5H26.25M3.75 22.5H26.25" stroke="white" stroke-width="2" stroke-linecap="round" stroke-linejoin="round"/>
<path d="M62.5 2.5H64.1327C64.4402 2.5 64.594 2.5 64.7177 2.55655C64.8268 2.60638 64.9192 2.68653 64.9839 2.78743C65.0574 2.90193 65.0792 3.05415 65.1227 3.35858L65.7143 7.5M65.7143 7.5L67.0291 17.1643C67.196 18.3907 67.2794 19.0039 67.5726 19.4654C67.831 19.8722 68.2014 20.1956 68.6392 20.3967C69.1361 20.625 69.7549 20.625 70.9926 20.625H81.69C82.8682 20.625 83.4573 20.625 83.9387 20.413C84.3632 20.2261 84.7273 19.9248 84.9903 19.5428C85.2887 19.1095 85.3989 18.5308 85.6193 17.3734L87.2739 8.68711C87.3515 8.27976 87.3903 8.07608 87.334 7.91687C87.2847 7.77721 87.1874 7.65961 87.0594 7.58502C86.9136 7.5 86.7062 7.5 86.2915 7.5H65.7143ZM72.5 26.25C72.5 26.9404 71.9404 27.5 71.25 27.5C70.5596 27.5 70 26.9404 70 26.25C70 25.5596 70.5596 25 71.25 25C71.9404 25 72.5 25.5596 72.5 26.25ZM82.5 26.25C82.5 26.9404 81.9404 27.5 81.25 27.5C80.5596 27.5 80 26.9404 80 26.25C80 25.5596 80.5596 25 81.25 25C81.9404 25 82.5 25.5596 82.5 26.25Z" stroke="white" stroke-width="2" stroke-linecap="round" stroke-linejoin="round"/>
<path d="M115 26.25C115 24.5055 115 23.6333 114.785 22.9236C114.3 21.3256 113.049 20.075 111.451 19.5903C110.742 19.375 109.869 19.375 108.125 19.375H101.875C100.131 19.375 99.2583 19.375 98.5486 19.5903C96.9506 20.075 95.7001 21.3256 95.2153 22.9236C95 23.6333 95 24.5055 95 26.25M110.625 9.375C110.625 12.4816 108.107 15 105 15C101.893 15 99.375 12.4816 99.375 9.375C99.375 6.2684 101.893 3.75 105 3.75C108.107 3.75 110.625 6.2684 110.625 9.375Z" stroke="white" stroke-width="2" stroke-linecap="round" stroke-linejoin="round"/>
</g>
<defs>
<clipPath id="clip0_65_63">
<rect width="120" height="30" fill="white"/>
</clipPath>
</defs>
</svg>
